<svg xmlns="http://www.w3.org/2000/svg" xmlns:xlink="http://www.w3.org/1999/xlink" id="Layer_1" x="0" y="0" version="1.1" viewBox="0 0 412 486" xml:space="preserve" style="enable-background:new 0 0 412 486"><style type="text/css">.st0{fill:url(#SVGID_1_);fill-opacity:.8}.st1,.st2{fill:#fff}.st2{fill-opacity:.8}.st3{fill:none}</style><linearGradient id="SVGID_1_" x1="400.65" x2="18.15" y1="485.45" y2="12.95" gradientTransform="matrix(1 0 0 -1 0 488)" gradientUnits="userSpaceOnUse"><stop offset="0" style="stop-color:#167eb8"/><stop offset="1" style="stop-color:#193849"/></linearGradient><path d="M30,0h352c16.6,0,30,13.4,30,30v426c0,16.6-13.4,30-30,30H30c-16.6,0-30-13.4-30-30V30C0,13.4,13.4,0,30,0z" class="st0"/><g><path d="M58.3,266c-0.1,0-0.2,0-0.3-0.1c-0.1-0.1-0.1-0.2-0.1-0.3v-24.3c0-0.1,0-0.2,0.1-0.3c0.1-0.1,0.2-0.1,0.3-0.1 H67c1.7,0,3.2,0.3,4.5,0.9c1.3,0.6,2.3,1.5,3,2.6c0.7,1.1,1.1,2.4,1.1,3.9v10.4c0,1.5-0.4,2.8-1.1,3.9c-0.7,1.1-1.7,2-3,2.6 c-1.3,0.6-2.8,0.9-4.5,0.9H58.3z M62,262.2c0,0.1,0.1,0.2,0.2,0.2h5c1.3,0,2.3-0.4,3-1.2c0.8-0.8,1.2-1.9,1.2-3.2v-9.1 c0-1.4-0.4-2.4-1.2-3.2c-0.8-0.8-1.8-1.2-3.1-1.2h-5c-0.1,0-0.2,0.1-0.2,0.2V262.2z M95.2,254.7c0.1,0.6,0.1,1.3,0.1,2l0,1.1 c0,0.3-0.1,0.4-0.4,0.4H83.6c-0.1,0-0.2,0.1-0.2,0.2c0.1,0.8,0.2,1.3,0.3,1.6c0.6,1.7,2,2.6,4.2,2.6c1.6,0,2.9-0.7,3.9-2 c0.1-0.1,0.2-0.2,0.4-0.2c0.1,0,0.2,0,0.3,0.1l2.2,1.8c0.2,0.2,0.3,0.4,0.1,0.6c-0.7,1.1-1.7,1.9-3,2.4c-1.2,0.6-2.6,0.9-4.1,0.9 c-1.9,0-3.5-0.4-4.8-1.3c-1.3-0.8-2.2-2-2.8-3.5c-0.6-1.3-0.8-3.1-0.8-5.4c0-1.4,0.1-2.5,0.4-3.4c0.5-1.7,1.4-3,2.7-4 c1.3-1,3-1.5,4.8-1.5C91.9,247.3,94.6,249.8,95.2,254.7z M87.2,250.9c-0.9,0-1.6,0.2-2.2,0.7c-0.6,0.4-1,1-1.2,1.8 c-0.1,0.4-0.2,0.9-0.3,1.6c0,0.1,0,0.2,0.1,0.2h7.3c0.1,0,0.2-0.1,0.2-0.2c0-0.6-0.1-1.1-0.2-1.4c-0.2-0.9-0.6-1.5-1.3-2 C89,251.2,88.2,250.9,87.2,250.9z M103.3,266c-0.2,0-0.4-0.1-0.5-0.4l-5.8-17.6c0,0,0-0.1,0-0.2c0-0.2,0.1-0.3,0.4-0.3h3.7 c0.3,0,0.4,0.1,0.5,0.4l3.5,12c0,0.1,0.1,0.1,0.1,0.1c0,0,0.1,0,0.1-0.1l3.5-12c0.1-0.2,0.2-0.4,0.5-0.4l3.7,0.1 c0.1,0,0.3,0,0.3,0.1c0.1,0.1,0.1,0.2,0,0.4l-5.8,17.5c-0.1,0.2-0.2,0.4-0.5,0.4H103.3z M126.1,247.6c0.1,0,0.2,0,0.3,0.1 c0.1,0.1,0.1,0.2,0.1,0.3v2.8c0,0.1,0,0.2-0.1,0.3c-0.1,0.1-0.2,0.1-0.3,0.1h-3.6c-0.1,0-0.2,0.1-0.2,0.2v14.1c0,0.1,0,0.2-0.1,0.3 c-0.1,0.1-0.2,0.1-0.3,0.1h-3.3c-0.1,0-0.2,0-0.3-0.1c-0.1-0.1-0.1-0.2-0.1-0.3v-14.1c0-0.1-0.1-0.2-0.2-0.2h-2.2 c-0.1,0-0.2,0-0.3-0.1c-0.1-0.1-0.1-0.2-0.1-0.3V248c0-0.1,0-0.2,0.1-0.3c0.1-0.1,0.2-0.1,0.3-0.1h2.2c0.1,0,0.2-0.1,0.2-0.2v-0.6 c0-1.6,0.2-2.8,0.6-3.6c0.4-0.9,1.1-1.5,2-1.8c0.9-0.4,2.3-0.5,4-0.5h1.3c0.1,0,0.2,0,0.3,0.1c0.1,0.1,0.1,0.2,0.1,0.3v2.5 c0,0.1,0,0.2-0.1,0.3c-0.1,0.1-0.2,0.1-0.3,0.1h-0.9c-1,0-1.8,0.2-2.2,0.6c-0.4,0.4-0.6,1.2-0.6,2.2v0.4c0,0.1,0.1,0.2,0.2,0.2 H126.1z M136.5,266.3c-1.9,0-3.5-0.5-4.9-1.4c-1.3-1-2.3-2.3-2.8-4c-0.4-1.3-0.6-2.7-0.6-4.1c0-1.5,0.2-2.9,0.6-4.1 c0.6-1.7,1.5-3,2.9-3.9c1.4-0.9,3-1.4,4.9-1.4c1.8,0,3.4,0.5,4.7,1.4c1.3,0.9,2.3,2.2,2.8,3.9c0.4,1.2,0.6,2.5,0.6,4.1 c0,1.5-0.2,2.9-0.6,4.1c-0.6,1.7-1.5,3-2.8,4C140,265.8,138.4,266.3,136.5,266.3z M136.5,262.7c0.9,0,1.6-0.3,2.3-0.8 c0.6-0.5,1.1-1.2,1.4-2.1c0.2-0.8,0.4-1.8,0.4-3c0-1.3-0.1-2.3-0.4-3c-0.3-0.9-0.7-1.6-1.4-2.1c-0.6-0.5-1.4-0.8-2.4-0.8 c-0.9,0-1.7,0.3-2.3,0.8c-0.6,0.5-1.1,1.2-1.4,2.1c-0.2,0.8-0.4,1.8-0.4,3s0.1,2.2,0.4,3c0.3,0.9,0.7,1.6,1.4,2.1 C134.8,262.4,135.6,262.7,136.5,262.7z M149.2,266c-0.1,0-0.2,0-0.3-0.1c-0.1-0.1-0.1-0.2-0.1-0.3v-24.3c0-0.1,0-0.2,0.1-0.3 c0.1-0.1,0.2-0.1,0.3-0.1h3.3c0.1,0,0.2,0,0.3,0.1c0.1,0.1,0.1,0.2,0.1,0.3v24.3c0,0.1,0,0.2-0.1,0.3c-0.1,0.1-0.2,0.1-0.3,0.1 H149.2z M159.7,245.1c-0.7,0-1.4-0.2-1.8-0.7c-0.5-0.5-0.7-1.1-0.7-1.8s0.2-1.4,0.7-1.8c0.5-0.5,1.1-0.7,1.8-0.7 c0.7,0,1.4,0.2,1.8,0.7c0.5,0.5,0.7,1.1,0.7,1.8s-0.2,1.4-0.7,1.8C161.1,244.8,160.5,245.1,159.7,245.1z M158,266 c-0.1,0-0.2,0-0.3-0.1c-0.1-0.1-0.1-0.2-0.1-0.3V248c0-0.1,0-0.2,0.1-0.3c0.1-0.1,0.2-0.1,0.3-0.1h3.3c0.1,0,0.2,0,0.3,0.1 c0.1,0.1,0.1,0.2,0.1,0.3v17.6c0,0.1,0,0.2-0.1,0.3c-0.1,0.1-0.2,0.1-0.3,0.1H158z M174.3,266.3c-1.9,0-3.5-0.5-4.9-1.4 c-1.3-1-2.3-2.3-2.8-4c-0.4-1.3-0.6-2.7-0.6-4.1c0-1.5,0.2-2.9,0.6-4.1c0.6-1.7,1.5-3,2.9-3.9c1.4-0.9,3-1.4,4.9-1.4 c1.8,0,3.4,0.5,4.7,1.4c1.3,0.9,2.3,2.2,2.8,3.9c0.4,1.2,0.6,2.5,0.6,4.1c0,1.5-0.2,2.9-0.6,4.1c-0.6,1.7-1.5,3-2.8,4 C177.8,265.8,176.2,266.3,174.3,266.3z M174.3,262.7c0.9,0,1.6-0.3,2.3-0.8c0.6-0.5,1.1-1.2,1.4-2.1c0.2-0.8,0.4-1.8,0.4-3 c0-1.3-0.1-2.3-0.4-3c-0.3-0.9-0.7-1.6-1.4-2.1c-0.6-0.5-1.4-0.8-2.4-0.8c-0.9,0-1.7,0.3-2.3,0.8c-0.6,0.5-1.1,1.2-1.4,2.1 c-0.2,0.8-0.4,1.8-0.4,3s0.1,2.2,0.4,3c0.3,0.9,0.7,1.6,1.4,2.1C172.6,262.4,173.4,262.7,174.3,262.7z M207.8,241.2 c0-0.1,0-0.2,0.1-0.3c0.1-0.1,0.2-0.1,0.3-0.1h3.3c0.1,0,0.2,0,0.3,0.1c0.1,0.1,0.1,0.2,0.1,0.3v24.3c0,0.1,0,0.2-0.1,0.3 c-0.1,0.1-0.2,0.1-0.3,0.1h-3.3c-0.1,0-0.2,0-0.3-0.1c-0.1-0.1-0.1-0.2-0.1-0.3v-10.3c0-0.1-0.1-0.2-0.2-0.2h-9.2 c-0.1,0-0.2,0.1-0.2,0.2v10.3c0,0.1,0,0.2-0.1,0.3c-0.1,0.1-0.2,0.1-0.3,0.1h-3.3c-0.1,0-0.2,0-0.3-0.1c-0.1-0.1-0.1-0.2-0.1-0.3 v-24.3c0-0.1,0-0.2,0.1-0.3c0.1-0.1,0.2-0.1,0.3-0.1h3.3c0.1,0,0.2,0,0.3,0.1c0.1,0.1,0.1,0.2,0.1,0.3v10.1c0,0.1,0.1,0.2,0.2,0.2 h9.2c0.1,0,0.2-0.1,0.2-0.2V241.2z M223.7,247.3c1.5,0,2.8,0.3,4,0.8c1.2,0.5,2,1.3,2.7,2.2c0.6,0.9,0.9,2,0.9,3.1v12.1 c0,0.1,0,0.2-0.1,0.3c-0.1,0.1-0.2,0.1-0.3,0.1h-3.3c-0.1,0-0.2,0-0.3-0.1c-0.1-0.1-0.1-0.2-0.1-0.3v-1.2c0-0.1,0-0.1-0.1-0.1 c0,0-0.1,0-0.1,0c-1.2,1.3-2.9,1.9-5.1,1.9c-1.8,0-3.3-0.5-4.5-1.4c-1.2-0.9-1.7-2.3-1.7-4.1c0-1.9,0.6-3.3,1.9-4.4 c1.3-1.1,3.2-1.6,5.5-1.6h3.9c0.1,0,0.2-0.1,0.2-0.2v-0.9c0-0.9-0.3-1.7-0.8-2.2c-0.6-0.5-1.4-0.8-2.5-0.8c-0.9,0-1.7,0.2-2.2,0.5 c-0.6,0.3-0.9,0.8-1,1.3c-0.1,0.3-0.2,0.4-0.5,0.4l-3.5-0.4c-0.1,0-0.2-0.1-0.3-0.1c-0.1-0.1-0.1-0.2-0.1-0.3 c0.2-1.5,1-2.7,2.3-3.6C219.9,247.8,221.6,247.3,223.7,247.3z M222.8,263c1.2,0,2.2-0.3,3-0.9c0.8-0.6,1.3-1.4,1.3-2.4V258 c0-0.1-0.1-0.2-0.2-0.2h-3c-1.3,0-2.3,0.2-3,0.7c-0.7,0.5-1.1,1.2-1.1,2.1c0,0.8,0.3,1.4,0.8,1.8C221.2,262.8,221.9,263,222.8,263z M243.1,266.3c-1.8,0-3.4-0.5-4.8-1.4c-1.3-1-2.3-2.2-2.8-3.9c-0.4-1.1-0.6-2.5-0.6-4.3c0-1.7,0.2-3.1,0.6-4.2 c0.5-1.6,1.4-2.8,2.8-3.7c1.4-0.9,3-1.4,4.8-1.4c1.9,0,3.5,0.5,4.9,1.4s2.3,2.1,2.8,3.5c0.1,0.4,0.2,0.8,0.3,1.2v0.1 c0,0.2-0.1,0.4-0.4,0.4l-3.2,0.5h-0.1c-0.2,0-0.4-0.1-0.4-0.4c0-0.1,0-0.2,0-0.3c0-0.2-0.1-0.4-0.1-0.5c-0.2-0.7-0.6-1.2-1.3-1.7 c-0.6-0.4-1.4-0.6-2.3-0.6c-0.9,0-1.7,0.2-2.3,0.7c-0.6,0.5-1,1.1-1.3,1.9c-0.2,0.8-0.4,1.8-0.4,3.2c0,1.3,0.1,2.4,0.3,3.2 c0.2,0.8,0.7,1.5,1.3,2c0.6,0.5,1.4,0.7,2.3,0.7c0.9,0,1.7-0.2,2.3-0.7c0.7-0.5,1.1-1.1,1.3-1.9c0,0,0-0.1,0-0.2c0,0,0-0.1,0-0.1 c0.1-0.3,0.2-0.4,0.5-0.4l3.2,0.5c0.1,0,0.2,0.1,0.3,0.2c0.1,0.1,0.1,0.2,0.1,0.3c-0.1,0.4-0.1,0.7-0.2,0.8 c-0.5,1.5-1.4,2.8-2.8,3.7C246.6,265.8,245,266.3,243.1,266.3z M255,266c-0.1,0-0.2,0-0.3-0.1c-0.1-0.1-0.1-0.2-0.1-0.3v-24.3 c0-0.1,0-0.2,0.1-0.3c0.1-0.1,0.2-0.1,0.3-0.1h3.3c0.1,0,0.2,0,0.3,0.1c0.1,0.1,0.1,0.2,0.1,0.3v13c0,0.1,0,0.1,0.1,0.1 c0,0,0.1,0,0.1-0.1l5.8-6.4c0.2-0.2,0.3-0.3,0.5-0.3h3.8c0.2,0,0.4,0.1,0.4,0.3c0,0.1,0,0.2-0.1,0.3l-4.6,5.5 c-0.1,0.1-0.1,0.2,0,0.3l5.4,11.6c0,0.1,0.1,0.2,0.1,0.2c0,0.2-0.1,0.3-0.4,0.3h-3.5c-0.2,0-0.4-0.1-0.5-0.3l-3.9-9.1 c0,0-0.1-0.1-0.1-0.1c0,0-0.1,0-0.1,0l-2.9,3.3c0,0.1-0.1,0.2-0.1,0.3v5.5c0,0.1,0,0.2-0.1,0.3c-0.1,0.1-0.2,0.1-0.3,0.1H255z M279.8,247.3c1.5,0,2.8,0.3,4,0.8s2,1.3,2.7,2.2c0.6,0.9,0.9,2,0.9,3.1v12.1c0,0.1,0,0.2-0.1,0.3c-0.1,0.1-0.2,0.1-0.3,0.1h-3.3 c-0.1,0-0.2,0-0.3-0.1c-0.1-0.1-0.1-0.2-0.1-0.3v-1.2c0-0.1,0-0.1-0.1-0.1c0,0-0.1,0-0.1,0c-1.2,1.3-2.9,1.9-5.1,1.9 c-1.8,0-3.3-0.5-4.5-1.4c-1.2-0.9-1.7-2.3-1.7-4.1c0-1.9,0.6-3.3,1.9-4.4c1.3-1.1,3.2-1.6,5.5-1.6h3.9c0.1,0,0.2-0.1,0.2-0.2v-0.9 c0-0.9-0.3-1.7-0.8-2.2c-0.6-0.5-1.4-0.8-2.5-0.8c-0.9,0-1.7,0.2-2.2,0.5c-0.6,0.3-0.9,0.8-1,1.3c-0.1,0.3-0.2,0.4-0.5,0.4 l-3.5-0.4c-0.1,0-0.2-0.1-0.3-0.1c-0.1-0.1-0.1-0.2-0.1-0.3c0.2-1.5,1-2.7,2.3-3.6C276,247.8,277.7,247.3,279.8,247.3z M279,263 c1.2,0,2.2-0.3,3-0.9c0.8-0.6,1.3-1.4,1.3-2.4V258c0-0.1-0.1-0.2-0.2-0.2h-3c-1.3,0-2.3,0.2-3,0.7c-0.7,0.5-1.1,1.2-1.1,2.1 c0,0.8,0.3,1.4,0.8,1.8C277.3,262.8,278.1,263,279,263z M301.1,250.6c0,0.1,0,0.2-0.1,0.3c-0.1,0.1-0.2,0.1-0.3,0.1H297 c-0.1,0-0.2,0.1-0.2,0.2v8.7c0,0.9,0.2,1.6,0.6,2c0.4,0.4,1,0.6,1.9,0.6h1.1c0.1,0,0.2,0,0.3,0.1c0.1,0.1,0.1,0.2,0.1,0.3v2.7 c0,0.3-0.1,0.4-0.4,0.5l-1.9,0c-1.9,0-3.3-0.3-4.2-1c-0.9-0.6-1.4-1.9-1.4-3.7v-10.3c0-0.1-0.1-0.2-0.2-0.2h-2.1 c-0.1,0-0.2,0-0.3-0.1c-0.1-0.1-0.1-0.2-0.1-0.3V248c0-0.1,0-0.2,0.1-0.3c0.1-0.1,0.2-0.1,0.3-0.1h2.1c0.1,0,0.2-0.1,0.2-0.2v-4.2 c0-0.1,0-0.2,0.1-0.3c0.1-0.1,0.2-0.1,0.3-0.1h3.1c0.1,0,0.2,0,0.3,0.1c0.1,0.1,0.1,0.2,0.1,0.3v4.2c0,0.1,0.1,0.2,0.2,0.2h3.7 c0.1,0,0.2,0,0.3,0.1c0.1,0.1,0.1,0.2,0.1,0.3V250.6z M313.6,247.3c1.9,0,3.5,0.6,4.6,1.7c1.2,1.2,1.8,2.7,1.8,4.7v11.8 c0,0.1,0,0.2-0.1,0.3c-0.1,0.1-0.2,0.1-0.3,0.1h-3.3c-0.1,0-0.2,0-0.3-0.1c-0.1-0.1-0.1-0.2-0.1-0.3v-10.9c0-1.1-0.3-2-0.9-2.7 c-0.6-0.7-1.5-1-2.5-1s-1.9,0.3-2.5,1c-0.6,0.7-0.9,1.6-0.9,2.7v11c0,0.1,0,0.2-0.1,0.3c-0.1,0.1-0.2,0.1-0.3,0.1h-3.3 c-0.1,0-0.2,0-0.3-0.1c-0.1-0.1-0.1-0.2-0.1-0.3v-24.3c0-0.1,0-0.2,0.1-0.3c0.1-0.1,0.2-0.1,0.3-0.1h3.3c0.1,0,0.2,0,0.3,0.1 c0.1,0.1,0.1,0.2,0.1,0.3v8c0,0.1,0,0.1,0.1,0.1s0.1,0,0.1-0.1C310.1,248,311.6,247.3,313.6,247.3z M332,266.3 c-1.9,0-3.5-0.5-4.9-1.4c-1.3-1-2.3-2.3-2.8-4c-0.4-1.3-0.6-2.7-0.6-4.1c0-1.5,0.2-2.9,0.6-4.1c0.6-1.7,1.5-3,2.9-3.9 c1.4-0.9,3-1.4,4.9-1.4c1.8,0,3.4,0.5,4.7,1.4c1.3,0.9,2.3,2.2,2.8,3.9c0.4,1.2,0.6,2.5,0.6,4.1c0,1.5-0.2,2.9-0.6,4.1 c-0.6,1.7-1.5,3-2.8,4C335.5,265.8,333.9,266.3,332,266.3z M332,262.7c0.9,0,1.6-0.3,2.3-0.8c0.6-0.5,1.1-1.2,1.4-2.1 c0.2-0.8,0.4-1.8,0.4-3c0-1.3-0.1-2.3-0.4-3c-0.3-0.9-0.7-1.6-1.4-2.1c-0.6-0.5-1.4-0.8-2.4-0.8c-0.9,0-1.7,0.3-2.3,0.8 c-0.6,0.5-1.1,1.2-1.4,2.1c-0.2,0.8-0.4,1.8-0.4,3s0.1,2.2,0.4,3c0.3,0.9,0.7,1.6,1.4,2.1C330.3,262.4,331.1,262.7,332,262.7z M353.1,247.3c1.9,0,3.5,0.6,4.6,1.7c1.2,1.2,1.8,2.7,1.8,4.7v11.8c0,0.1,0,0.2-0.1,0.3c-0.1,0.1-0.2,0.1-0.3,0.1h-3.3 c-0.1,0-0.2,0-0.3-0.1c-0.1-0.1-0.1-0.2-0.1-0.3v-10.9c0-1.1-0.3-2-0.9-2.7c-0.6-0.7-1.5-1-2.5-1c-1,0-1.9,0.3-2.5,1 c-0.6,0.7-0.9,1.6-0.9,2.7v11c0,0.1,0,0.2-0.1,0.3c-0.1,0.1-0.2,0.1-0.3,0.1h-3.3c-0.1,0-0.2,0-0.3-0.1c-0.1-0.1-0.1-0.2-0.1-0.3 V248c0-0.1,0-0.2,0.1-0.3c0.1-0.1,0.2-0.1,0.3-0.1h3.3c0.1,0,0.2,0,0.3,0.1c0.1,0.1,0.1,0.2,0.1,0.3v1.2c0,0.1,0,0.1,0.1,0.1 s0.1,0,0.1-0.1C349.6,248,351.1,247.3,353.1,247.3z M104.5,309.3c-1.9,0-3.5-0.3-4.9-0.9c-1.4-0.6-2.5-1.4-3.2-2.5 c-0.7-1.1-1.1-2.4-1.1-3.8v-0.9c0-0.1,0-0.2,0.1-0.3c0.1-0.1,0.2-0.1,0.3-0.1h3.2c0.1,0,0.2,0,0.3,0.1c0.1,0.1,0.1,0.2,0.1,0.3v0.7 c0,1.1,0.5,2,1.5,2.8c1,0.7,2.3,1.1,4,1.1c1.5,0,2.6-0.3,3.3-0.9c0.7-0.6,1.1-1.4,1.1-2.4c0-0.7-0.2-1.2-0.6-1.7 c-0.4-0.5-1-0.9-1.8-1.3c-0.7-0.4-1.9-0.9-3.4-1.4c-1.7-0.6-3.1-1.2-4.1-1.8c-1.1-0.6-1.9-1.3-2.7-2.2c-0.7-1-1-2.1-1-3.6 c0-2.1,0.8-3.8,2.3-5c1.5-1.2,3.6-1.8,6.2-1.8c1.8,0,3.4,0.3,4.8,0.9c1.4,0.6,2.5,1.5,3.2,2.6c0.8,1.1,1.2,2.4,1.2,3.9v0.6 c0,0.1,0,0.2-0.1,0.3c-0.1,0.1-0.2,0.1-0.3,0.1h-3.2c-0.1,0-0.2,0-0.3-0.1c-0.1-0.1-0.1-0.2-0.1-0.3v-0.4c0-1.1-0.5-2.1-1.4-2.8 c-0.9-0.8-2.2-1.2-3.8-1.2c-1.3,0-2.4,0.3-3.1,0.8c-0.7,0.6-1.1,1.3-1.1,2.3c0,0.7,0.2,1.3,0.6,1.8c0.4,0.5,1,0.9,1.7,1.3 c0.8,0.4,2,0.8,3.6,1.4c1.7,0.6,3.1,1.2,4.1,1.8c1,0.5,1.9,1.3,2.6,2.2c0.7,0.9,1.1,2.1,1.1,3.5c0,2.2-0.8,3.9-2.4,5.1 C109.5,308.7,107.3,309.3,104.5,309.3z M132.8,297.7c0.1,0.6,0.1,1.3,0.1,2l0,1.1c0,0.3-0.1,0.4-0.4,0.4h-11.3 c-0.1,0-0.2,0.1-0.2,0.2c0.1,0.8,0.2,1.3,0.3,1.6c0.6,1.7,2,2.6,4.2,2.6c1.6,0,2.9-0.7,3.9-2c0.1-0.1,0.2-0.2,0.4-0.2 c0.1,0,0.2,0,0.3,0.1l2.2,1.8c0.2,0.2,0.3,0.4,0.1,0.6c-0.7,1.1-1.7,1.9-3,2.4c-1.2,0.6-2.6,0.9-4.1,0.9c-1.9,0-3.5-0.4-4.8-1.3 c-1.3-0.8-2.2-2-2.8-3.5c-0.6-1.3-0.8-3.1-0.8-5.4c0-1.4,0.1-2.5,0.4-3.4c0.5-1.7,1.4-3,2.7-4c1.3-1,3-1.5,4.8-1.5 C129.5,290.3,132.2,292.8,132.8,297.7z M124.8,293.9c-0.9,0-1.6,0.2-2.2,0.7c-0.6,0.4-1,1-1.2,1.8c-0.1,0.4-0.2,0.9-0.3,1.6 c0,0.1,0,0.2,0.1,0.2h7.3c0.1,0,0.2-0.1,0.2-0.2c0-0.6-0.1-1.1-0.2-1.4c-0.2-0.9-0.6-1.5-1.3-2 C126.5,294.2,125.8,293.9,124.8,293.9z M143.6,290.3c1.5,0,2.8,0.3,4,0.8c1.2,0.5,2,1.3,2.7,2.2c0.6,0.9,0.9,2,0.9,3.1v12.1 c0,0.1,0,0.2-0.1,0.3c-0.1,0.1-0.2,0.1-0.3,0.1h-3.3c-0.1,0-0.2,0-0.3-0.1c-0.1-0.1-0.1-0.2-0.1-0.3v-1.2c0-0.1,0-0.1-0.1-0.1 c0,0-0.1,0-0.1,0c-1.2,1.3-2.9,1.9-5.1,1.9c-1.8,0-3.3-0.5-4.5-1.4c-1.2-0.9-1.7-2.3-1.7-4.1c0-1.9,0.6-3.3,1.9-4.4 c1.3-1.1,3.2-1.6,5.5-1.6h3.9c0.1,0,0.2-0.1,0.2-0.2v-0.9c0-0.9-0.3-1.7-0.8-2.2c-0.6-0.5-1.4-0.8-2.5-0.8c-0.9,0-1.7,0.2-2.2,0.5 c-0.6,0.3-0.9,0.8-1,1.3c-0.1,0.3-0.2,0.4-0.5,0.4l-3.5-0.4c-0.1,0-0.2-0.1-0.3-0.1c-0.1-0.1-0.1-0.2-0.1-0.3 c0.2-1.5,1-2.7,2.3-3.6C139.8,290.8,141.5,290.3,143.6,290.3z M142.7,306c1.2,0,2.2-0.3,3-0.9c0.8-0.6,1.3-1.4,1.3-2.4V301 c0-0.1-0.1-0.2-0.2-0.2h-3c-1.3,0-2.3,0.2-3,0.7c-0.7,0.5-1.1,1.2-1.1,2.1c0,0.8,0.3,1.4,0.8,1.8C141.1,305.8,141.8,306,142.7,306z M162.2,309.2c-1.5,0-2.8-0.2-4-0.6c-1.1-0.5-2-1.1-2.6-1.8c-0.6-0.8-0.9-1.7-0.9-2.6v-0.3c0-0.1,0-0.2,0.1-0.3 c0.1-0.1,0.2-0.1,0.3-0.1h3.2c0.1,0,0.2,0,0.3,0.1c0.1,0.1,0.1,0.2,0.1,0.3v0.1c0,0.6,0.3,1.1,1,1.6c0.7,0.4,1.5,0.6,2.5,0.6 c1,0,1.7-0.2,2.3-0.6c0.6-0.4,0.9-0.9,0.9-1.5c0-0.6-0.3-1-0.8-1.2c-0.5-0.3-1.3-0.6-2.4-0.9l-1.4-0.4c-1.2-0.4-2.3-0.7-3.1-1.2 c-0.8-0.4-1.5-1-2.1-1.7c-0.6-0.7-0.9-1.6-0.9-2.7c0-1.7,0.7-3,2-4c1.3-1,3.1-1.5,5.2-1.5c1.5,0,2.7,0.2,3.9,0.7 c1.1,0.5,2,1.1,2.6,1.9c0.6,0.8,0.9,1.8,0.9,2.8c0,0.1,0,0.2-0.1,0.3c-0.1,0.1-0.2,0.1-0.3,0.1h-3.1c-0.1,0-0.2,0-0.3-0.1 c-0.1-0.1-0.1-0.2-0.1-0.3c0-0.6-0.3-1.1-0.9-1.5c-0.6-0.4-1.4-0.6-2.5-0.6c-0.9,0-1.7,0.2-2.3,0.5c-0.6,0.3-0.9,0.8-0.9,1.4 c0,0.6,0.3,1,0.8,1.3c0.6,0.3,1.5,0.6,2.8,1l0.8,0.2c1.3,0.4,2.3,0.8,3.2,1.2c0.9,0.4,1.6,0.9,2.2,1.7c0.6,0.7,0.9,1.6,0.9,2.7 c0,1.7-0.7,3-2,4C166.2,308.7,164.5,309.2,162.2,309.2z M180.9,309.3c-1.9,0-3.5-0.5-4.9-1.4c-1.3-1-2.3-2.3-2.8-4 c-0.4-1.3-0.6-2.7-0.6-4.1c0-1.5,0.2-2.9,0.6-4.1c0.6-1.7,1.5-3,2.9-3.9s3-1.4,4.9-1.4c1.8,0,3.4,0.5,4.7,1.4 c1.3,0.9,2.3,2.2,2.8,3.9c0.4,1.2,0.6,2.5,0.6,4.1c0,1.5-0.2,2.9-0.6,4.1c-0.6,1.7-1.5,3-2.8,4 C184.4,308.8,182.8,309.3,180.9,309.3z M180.9,305.7c0.9,0,1.6-0.3,2.3-0.8c0.6-0.5,1.1-1.2,1.4-2.1c0.2-0.8,0.4-1.8,0.4-3 c0-1.3-0.1-2.3-0.4-3c-0.3-0.9-0.7-1.6-1.4-2.1c-0.6-0.5-1.4-0.8-2.4-0.8c-0.9,0-1.7,0.3-2.3,0.8c-0.6,0.5-1.1,1.2-1.4,2.1 c-0.2,0.8-0.4,1.8-0.4,3s0.1,2.2,0.4,3c0.3,0.9,0.7,1.6,1.4,2.1C179.2,305.4,180,305.7,180.9,305.7z M202,290.3 c1.9,0,3.5,0.6,4.6,1.7c1.2,1.2,1.8,2.7,1.8,4.7v11.8c0,0.1,0,0.2-0.1,0.3c-0.1,0.1-0.2,0.1-0.3,0.1h-3.3c-0.1,0-0.2,0-0.3-0.1 c-0.1-0.1-0.1-0.2-0.1-0.3v-10.9c0-1.1-0.3-2-0.9-2.7c-0.6-0.7-1.5-1-2.5-1s-1.9,0.3-2.5,1c-0.6,0.7-0.9,1.6-0.9,2.7v11 c0,0.1,0,0.2-0.1,0.3c-0.1,0.1-0.2,0.1-0.3,0.1h-3.3c-0.1,0-0.2,0-0.3-0.1c-0.1-0.1-0.1-0.2-0.1-0.3V291c0-0.1,0-0.2,0.1-0.3 c0.1-0.1,0.2-0.1,0.3-0.1h3.3c0.1,0,0.2,0,0.3,0.1c0.1,0.1,0.1,0.2,0.1,0.3v1.2c0,0.1,0,0.1,0.1,0.1s0.1,0,0.1-0.1 C198.5,291,200,290.3,202,290.3z M234.4,295.9c-0.1,0.1-0.1,0.1,0,0.2c2.4,1.2,3.7,3.1,3.7,5.9c0,2.3-0.8,4-2.3,5.2 c-1.5,1.2-3.5,1.8-5.9,1.8h-9.1c-0.1,0-0.2,0-0.3-0.1c-0.1-0.1-0.1-0.2-0.1-0.3v-24.3c0-0.1,0-0.2,0.1-0.3c0.1-0.1,0.2-0.1,0.3-0.1 h8.8c2.6,0,4.6,0.6,6,1.7s2.1,2.8,2.1,5.1C237.7,293.1,236.6,294.9,234.4,295.9z M224.7,287.4c-0.1,0-0.2,0.1-0.2,0.2v6.7 c0,0.1,0.1,0.2,0.2,0.2h4.9c1.3,0,2.3-0.3,3-0.9c0.7-0.6,1.1-1.5,1.1-2.6c0-1.1-0.4-2-1.1-2.6c-0.7-0.6-1.7-1-3-1H224.7z M229.8,305.4c1.2,0,2.2-0.3,3-1c0.7-0.7,1.1-1.6,1.1-2.7c0-1.2-0.4-2.1-1.1-2.7c-0.7-0.7-1.8-1-3-1h-5.1c-0.1,0-0.2,0.1-0.2,0.2 v7.1c0,0.1,0.1,0.2,0.2,0.2H229.8z M250.1,309.3c-1.9,0-3.5-0.5-4.9-1.4c-1.3-1-2.3-2.3-2.8-4c-0.4-1.3-0.6-2.7-0.6-4.1 c0-1.5,0.2-2.9,0.6-4.1c0.6-1.7,1.5-3,2.9-3.9c1.4-0.9,3-1.4,4.9-1.4c1.8,0,3.4,0.5,4.7,1.4c1.3,0.9,2.3,2.2,2.8,3.9 c0.4,1.2,0.6,2.5,0.6,4.1c0,1.5-0.2,2.9-0.6,4.1c-0.6,1.7-1.5,3-2.8,4C253.6,308.8,252,309.3,250.1,309.3z M250.1,305.7 c0.9,0,1.6-0.3,2.3-0.8c0.6-0.5,1.1-1.2,1.4-2.1c0.2-0.8,0.4-1.8,0.4-3c0-1.3-0.1-2.3-0.4-3c-0.3-0.9-0.7-1.6-1.4-2.1 c-0.6-0.5-1.4-0.8-2.4-0.8c-0.9,0-1.7,0.3-2.3,0.8c-0.6,0.5-1.1,1.2-1.4,2.1c-0.2,0.8-0.4,1.8-0.4,3s0.1,2.2,0.4,3 c0.3,0.9,0.7,1.6,1.4,2.1C248.4,305.4,249.2,305.7,250.1,305.7z M273.2,291c0-0.1,0-0.2,0.1-0.3c0.1-0.1,0.2-0.1,0.3-0.1h3.3 c0.1,0,0.2,0,0.3,0.1c0.1,0.1,0.1,0.2,0.1,0.3v17.5c0,0.1,0,0.2-0.1,0.3c-0.1,0.1-0.2,0.1-0.3,0.1h-3.3c-0.1,0-0.2,0-0.3-0.1 c-0.1-0.1-0.1-0.2-0.1-0.3v-1.2c0-0.1,0-0.1-0.1-0.1c0,0-0.1,0-0.1,0.1c-1,1.3-2.5,1.9-4.4,1.9c-1.8,0-3.4-0.5-4.6-1.6 c-1.2-1.1-1.8-2.6-1.8-4.5V291c0-0.1,0-0.2,0.1-0.3c0.1-0.1,0.2-0.1,0.3-0.1h3.3c0.1,0,0.2,0,0.3,0.1c0.1,0.1,0.1,0.2,0.1,0.3V302 c0,1.1,0.3,2,0.9,2.7c0.6,0.7,1.4,1,2.5,1c1.1,0,1.9-0.3,2.6-1c0.6-0.7,1-1.6,1-2.7V291z M290.6,290.3c1.9,0,3.5,0.6,4.6,1.7 c1.2,1.2,1.8,2.7,1.8,4.7v11.8c0,0.1,0,0.2-0.1,0.3c-0.1,0.1-0.2,0.1-0.3,0.1h-3.3c-0.1,0-0.2,0-0.3-0.1c-0.1-0.1-0.1-0.2-0.1-0.3 v-10.9c0-1.1-0.3-2-0.9-2.7c-0.6-0.7-1.5-1-2.5-1c-1,0-1.9,0.3-2.5,1c-0.6,0.7-0.9,1.6-0.9,2.7v11c0,0.1,0,0.2-0.1,0.3 c-0.1,0.1-0.2,0.1-0.3,0.1h-3.3c-0.1,0-0.2,0-0.3-0.1c-0.1-0.1-0.1-0.2-0.1-0.3V291c0-0.1,0-0.2,0.1-0.3c0.1-0.1,0.2-0.1,0.3-0.1 h3.3c0.1,0,0.2,0,0.3,0.1c0.1,0.1,0.1,0.2,0.1,0.3v1.2c0,0.1,0,0.1,0.1,0.1c0,0,0.1,0,0.1-0.1C287.1,291,288.6,290.3,290.6,290.3z M311.1,293.6c0,0.1,0,0.2-0.1,0.3c-0.1,0.1-0.2,0.1-0.3,0.1H307c-0.1,0-0.2,0.1-0.2,0.2v8.7c0,0.9,0.2,1.6,0.6,2 c0.4,0.4,1,0.6,1.9,0.6h1.1c0.1,0,0.2,0,0.3,0.1c0.1,0.1,0.1,0.2,0.1,0.3v2.7c0,0.3-0.1,0.4-0.4,0.5l-1.9,0c-1.9,0-3.3-0.3-4.2-1 c-0.9-0.6-1.4-1.9-1.4-3.7v-10.3c0-0.1-0.1-0.2-0.2-0.2h-2.1c-0.1,0-0.2,0-0.3-0.1c-0.1-0.1-0.1-0.2-0.1-0.3V291 c0-0.1,0-0.2,0.1-0.3c0.1-0.1,0.2-0.1,0.3-0.1h2.1c0.1,0,0.2-0.1,0.2-0.2v-4.2c0-0.1,0-0.2,0.1-0.3c0.1-0.1,0.2-0.1,0.3-0.1h3.1 c0.1,0,0.2,0,0.3,0.1c0.1,0.1,0.1,0.2,0.1,0.3v4.2c0,0.1,0.1,0.2,0.2,0.2h3.7c0.1,0,0.2,0,0.3,0.1c0.1,0.1,0.1,0.2,0.1,0.3V293.6z M314.5,316.2c-0.1,0-0.1,0-0.2-0.1c0-0.1-0.1-0.2-0.1-0.3v-2.6c0-0.1,0-0.2,0.1-0.3c0.1-0.1,0.2-0.1,0.3-0.1h0 c1,0,1.8-0.1,2.3-0.3c0.6-0.2,1-0.5,1.4-1c0.4-0.5,0.7-1.3,1-2.3c0,0,0-0.1,0-0.2l-5.9-17.8c0,0,0-0.1,0-0.2c0-0.2,0.1-0.3,0.4-0.3 h3.5c0.3,0,0.4,0.1,0.5,0.4l3.6,12.7c0,0.1,0.1,0.1,0.1,0.1s0.1,0,0.1-0.1l3.6-12.7c0.1-0.2,0.2-0.4,0.5-0.4h3.4 c0.1,0,0.2,0,0.3,0.1c0.1,0.1,0.1,0.2,0,0.4l-6.3,18.9c-0.6,1.7-1.2,3-1.8,3.8c-0.6,0.8-1.4,1.4-2.4,1.8c-1,0.4-2.4,0.5-4.2,0.5 H314.5z" class="st1"/></g><g><path d="M111,65h202c16.6,0,30,13.4,30,30v35c0,16.6-13.4,30-30,30H111c-16.6,0-30-13.4-30-30V95 C81,78.4,94.4,65,111,65z" class="st2"/></g><rect width="205" height="49" x="110" y="88" class="st3"/><image style="overflow:visible" width="480" height="151" transform="matrix(0.5 0 0 0.5 92.5 74.75)" xlink:href="tezos.png"/></svg>